<svg xmlns="http://www.w3.org/2000/svg" viewBox="0 0 640 512"><path d="M608 64c-17.7 0-32 14.3-32 32v148.4l-89.8 107.8c-6 7.2-17 7.7-23.6 1.1l-12.8-12.8c-5.6-5.6-6.3-14.5-1.5-20.9l38.1-50.8c10.6-14.1 7.7-34.2-6.4-44.8-14.1-10.6-34.2-7.7-44.8 6.4l-57.6 76.8C361 329.4 352 356.3 352 384v128h160v-3.9c0-10.9 3.7-21.5 10.5-30l107-133.7c6.8-8.5 10.5-19.1 10.5-30V96c0-17.7-14.3-32-32-32zM204.8 230.4c-10.6-14.1-30.7-17-44.8-6.4-14.1 10.6-17 30.7-6.4 44.8l38.1 50.8c4.8 6.4 4.1 15.3-1.5 20.9l-12.8 12.8c-6.7 6.7-17.6 6.2-23.6-1.1L64 244.4V96c0-17.7-14.3-32-32-32S0 78.3 0 96v218.4c0 10.9 3.7 21.5 10.5 30l107 133.7c6.8 8.5 10.5 19.1 10.5 30v3.9h160V384c0-27.7-9-54.6-25.6-76.8l-57.6-76.8zm235.4-123.5L342.6 9.4c-12.5-12.5-32.8-12.5-45.3 0l-97.5 97.5c-12.5 12.5-12.5 32.8 0 45.3l97.5 97.5c12.5 12.5 32.8 12.5 45.3 0l97.5-97.5c12.6-12.5 12.6-32.8.1-45.3z"/></svg>