<svg xmlns="http://www.w3.org/2000/svg" viewBox="0 0 512 512"><path d="M256 48c25.778 0 64.035 29.781 64.035 58.5 0 22.528-5.535 32.5-14.306 45.5H334c28.719 0 52 23.281 52 52 0 18.617-7.805 36.04-23.195 51.783l-.213.217c68.119 0 78.945 63.358 40.035 104C444.288 360 464 383.724 464 412c0 28.719-23.281 52-52 52H100c-60.777 0-73.352-91.152-9.583-103.109.23-.044 10.646-2.01 27.155-5.505-32.367-14.655-48.53-78.657 4.799-96.656.2-.068 11.59-3.927 28.567-10.203-38.738-23.167-29.9-77.037 6.28-92.197C158.841 155.577 256 138.035 256 48M208 0v48c0 51.396-57.388 58.99-69.524 64.141-48.482 20.426-67.516 72.637-58.808 114.545-37.027 25.385-45.085 70.757-37.124 102.688C16.903 346.574 0 375.777 0 412c0 54.249 46.769 100 100 100h312c55.14 0 100-44.86 100-100 0-33.227-16.293-62.724-41.306-80.919 8.63-42.822-7.85-81.381-39.068-104.05 11.403-54.583-19.645-101.133-63.625-117.08C368 80 344 0 208 0zm-47.996 352c-6.589 0-10.367 7.53-6.41 12.799C176.946 395.889 214.123 416 256 416s79.054-20.111 102.406-51.201c3.957-5.269.18-12.799-6.41-12.799H160.004zM312 224a47.789 47.789 0 0 0-22.603 5.647h.015c10.916 0 19.765 8.849 19.765 19.765s-8.849 19.765-19.765 19.765-19.765-8.849-19.765-19.765v-.015A47.789 47.789 0 0 0 264 272c0 26.51 21.49 48 48 48s48-21.49 48-48-21.49-48-48-48zm-112 0a47.789 47.789 0 0 0-22.603 5.647h.015c10.916 0 19.765 8.849 19.765 19.765s-8.849 19.765-19.765 19.765-19.765-8.849-19.765-19.765v-.015A47.789 47.789 0 0 0 152 272c0 26.51 21.49 48 48 48s48-21.49 48-48-21.49-48-48-48z"/></svg>